<?xml version="1.0" encoding="utf-8"?>
<!-- Generator: Adobe Illustrator 23.0.4, SVG Export Plug-In . SVG Version: 6.00 Build 0)  -->
<svg version="1.1" id="Layer_1" xmlns="http://www.w3.org/2000/svg" xmlns:xlink="http://www.w3.org/1999/xlink" x="0px" y="0px"
	 viewBox="0 0 1468 932" style="enable-background:new 0 0 1468 932;" xml:space="preserve">
<style type="text/css">
	.st0{fill:none;stroke:#000000;stroke-miterlimit:10;}
	.st1{fill:#FFFFFF;}
	.st2{fill:none;}
	.st3{fill:#FFFFFF;stroke:#FFFFFF;stroke-miterlimit:10;}
</style>
<g>
	<g>
		<path class="st0" d="M735.34,444.33"/>
	</g>
</g>
<g>
	<path class="st1" d="M584.39,626.55c-6.71,0.77-7.4,1.29-7.4,8.51v31.82c0,11.35-1.81,17.29-7.57,22.45
		c-2.84,2.58-5.68,3.96-8,4.99l-1.38-2.58c4.9-2.41,7.65-6.36,8.6-11.35c0.77-4.13,0.86-9.12,0.86-16.34v-28.98
		c0-7.22-0.77-7.83-7.83-8.51v-2.41h22.7V626.55z"/>
	<path class="st1" d="M628.68,678.06c-4.13,0.6-8.77,1.72-13.16,3.01c0-1.38,0-4.47,0-6.62c-4.64,3.87-8.43,6.62-13.16,6.62
		c-5.76,0-10.75-3.53-10.75-12.9v-16.68c0-4.64-0.69-5.16-2.84-5.59l-2.41-0.43v-2.24c3.7-0.17,9.37-1.03,12.3-1.55
		c-0.26,2.75-0.26,6.88-0.26,12.56v11.7c0,7.57,3.96,9.72,7.83,9.72c3.18,0,6.36-1.38,9.29-4.13v-20.04c0-4.64-1.03-5.25-3.96-5.68
		l-2.75-0.34v-2.24c5.5-0.26,11.52-1.2,13.5-1.55v28.81c0,4.3,0.69,4.9,3.96,5.07l2.41,0.09V678.06z"/>
	<path class="st1" d="M680.19,680.04v-2.41c5.07-0.52,5.68-0.86,5.68-6.88v-14.36c0-6.11-2.06-9.98-7.4-9.98
		c-3.27,0-6.28,1.81-9.55,4.47c0.09,1.03,0.26,2.06,0.26,3.7v16.68c0,5.42,0.77,5.85,5.5,6.36v2.41h-18.4v-2.41
		c5.33-0.52,6.11-0.86,6.11-6.54V656.3c0-6.36-1.98-9.89-7.22-9.89c-3.44,0-6.79,2.32-9.46,4.47v20.21c0,5.68,0.6,6.02,5.5,6.54
		v2.41h-18.49v-2.41c5.68-0.52,6.19-0.86,6.19-6.54v-17.8c0-5.5-0.34-5.85-5.16-6.71v-2.15c4.04-0.6,8.08-1.72,11.95-3.44
		c0,2.06,0,4.9,0,6.97c1.81-1.38,3.61-2.84,6.36-4.47c2.15-1.38,4.04-2.24,6.79-2.24c4.13,0,7.65,2.58,9.37,7.05
		c2.41-1.89,4.64-3.35,6.79-4.82c1.89-1.2,4.3-2.24,6.79-2.24c6.71,0,10.84,4.82,10.84,13.24v16.6c0,5.76,0.52,6.02,5.42,6.54v2.41
		H680.19z"/>
	<path class="st1" d="M702.12,644.09c4.04-0.6,8.51-2.06,12.47-3.7c0,2.06,0,4.82,0,6.88c0.26-0.17,7.14-4.13,7.48-4.3
		c2.06-1.12,3.87-1.72,4.99-1.72c9.46,0,15.22,7.91,15.22,16.43c0,13.07-10.32,21.33-21.59,23.39c-2.58-0.09-4.9-0.86-6.11-1.55
		v11.61c0,6.36,0.69,6.88,7.31,7.48v2.41h-20.38v-2.41c5.59-0.6,6.28-1.03,6.28-6.79v-39.13c0-5.16-0.17-5.5-5.68-6.28V644.09z
		 M714.59,673.5c1.98,1.98,5.33,3.35,8.17,3.35c7.48,0,12.3-6.28,12.3-15.91c0-9.29-5.42-14.53-11.52-14.53
		c-3.01,0-6.62,1.98-8.94,3.7V673.5z"/>
</g>
<polygon class="st2" points="492.57,566.51 495.04,566.51 495.04,566.51 492.57,566.51 "/>
<g>
	<g>
		<path class="st1" d="M543.33,555.69c-1.46-5.68-3.87-11.27-11.95-11.27c-6.71,0-9.03,4.9-9.03,9.38c0,5.93,3.78,8.94,10.92,12.64
			c10.32,5.33,14.79,9.29,14.79,17.46c0,9.03-7.83,15.91-18.92,15.91c-5.16,0-9.63-1.46-13.16-2.84c-0.69-2.41-1.72-8.26-2.32-12.9
			l2.67-0.69c1.72,5.76,5.5,13.24,14.45,13.24c6.19,0,9.98-4.3,9.98-9.89c0-6.62-3.53-9.29-11.09-13.42
			c-9.03-4.9-14.1-9.03-14.1-17.03c0-7.65,6.36-14.88,17.72-14.88c4.82,0,9.55,1.29,11.35,1.63c0.34,3.1,0.69,6.54,1.38,12.12
			L543.33,555.69z"/>
		<path class="st1" d="M596.56,598.52c-4.64,0-9.72,0.09-11.52,0.17c-0.52-0.6-14.02-16.6-14.53-17.11
			c-1.2-1.38-1.72-1.81-2.49-1.81c-0.34,0-1.03,0-1.55,0.17v9.55c0,5.76,0.43,6.11,6.02,6.62v2.41h-19.01v-2.41
			c5.76-0.52,6.19-1.12,6.19-6.62v-41.11c0-5.59-0.6-5.76-5.93-6.54v-2.24c4.47-0.43,9.63-1.72,12.73-2.92c0,3.7,0,7.22,0,10.92
			v30.1c2.58-0.6,4.21-1.63,5.5-3.01c1.98-1.98,5.16-5.85,6.62-8c1.81-2.49,1.12-3.18-3.01-3.53v-2.41l17.72-0.77v2.32
			c-6.02,0.95-7.74,1.63-11.44,5.5c-1.63,1.72-5.5,6.11-7.31,8.34c1.72,2.41,10.49,12.38,13.33,15.39c4.13,4.13,5.33,4.39,8.69,4.56
			V598.52z"/>
		<path class="st1" d="M596.82,598.52v-2.41c5.42-0.52,6.02-0.95,6.02-6.79V571.6c0-5.33-0.26-5.68-5.42-6.54V563
			c4.47-0.77,8.51-1.89,12.21-3.44c0,3.61,0,7.22,0,10.84v18.92c0,5.85,0.6,6.28,6.19,6.79v2.41H596.82z M605.76,551.13
			c-2.41,0-4.56-2.15-4.56-4.56c0-2.75,2.15-4.73,4.64-4.73c2.41,0,4.39,1.98,4.39,4.73C610.23,548.98,608.25,551.13,605.76,551.13z
			"/>
		<path class="st1" d="M619.43,562.57c4.04-0.6,8.51-2.06,12.47-3.7c0,2.06,0,4.82,0,6.88c0.26-0.17,7.14-4.13,7.48-4.3
			c2.06-1.12,3.87-1.72,4.99-1.72c9.46,0,15.22,7.91,15.22,16.43c0,13.07-10.32,21.33-21.59,23.39c-2.58-0.09-4.9-0.86-6.11-1.55
			v11.61c0,6.36,0.69,6.88,7.31,7.48v2.41h-20.38v-2.41c5.59-0.6,6.28-1.03,6.28-6.79v-39.13c0-5.16-0.17-5.5-5.68-6.28V562.57z
			 M631.9,591.98c1.98,1.98,5.33,3.35,8.17,3.35c7.48,0,12.3-6.28,12.3-15.91c0-9.29-5.42-14.53-11.52-14.53
			c-3.01,0-6.62,1.98-8.94,3.7V591.98z"/>
	</g>
</g>
<g>
	<g>
		<path class="st3" d="M531.53,468.6c-7.14,0.69-7.83,1.12-7.83,8.34v34.49c0,7.22,0.77,7.48,7.83,8.26v2.41h-23.05v-2.41
			c7.14-0.86,7.83-1.03,7.83-8.26v-17.2H486.9v17.2c0,7.14,0.69,7.4,7.74,8.26v2.41h-22.96v-2.41c6.97-0.77,7.74-1.03,7.74-8.26
			v-34.49c0-7.22-0.77-7.65-7.74-8.34v-2.41h22.96v2.41c-6.88,0.6-7.74,1.2-7.74,8.34v13.67h29.41v-13.67
			c0-7.14-0.95-7.74-7.83-8.34v-2.41h23.05V468.6z"/>
		<path class="st3" d="M557.67,483.3c10.75,0,18.75,8.17,18.75,19.26c0,13.93-10.32,20.55-18.75,20.55
			c-11.87,0-19.09-9.55-19.09-19.18C538.58,489.92,549.51,483.3,557.67,483.3z M556.64,486.23c-5.25,0-9.98,5.07-9.98,15.05
			c0,10.92,4.82,18.83,11.87,18.83c5.33,0,9.8-3.87,9.8-15.65C568.34,494.4,564.21,486.23,556.64,486.23z"/>
		<path class="st3" d="M581.75,486.14c4.04-0.6,8.51-2.06,12.47-3.7c0,2.06,0,4.82,0,6.88c0.26-0.17,7.14-4.13,7.48-4.3
			c2.06-1.12,3.87-1.72,4.99-1.72c9.46,0,15.22,7.91,15.22,16.43c0,13.07-10.32,21.33-21.59,23.39c-2.58-0.09-4.9-0.86-6.11-1.55
			v11.61c0,6.36,0.69,6.88,7.31,7.48v2.41h-20.38v-2.41c5.59-0.6,6.28-1.03,6.28-6.79v-39.13c0-5.16-0.17-5.5-5.68-6.28V486.14z
			 M594.22,515.55c1.98,1.98,5.33,3.35,8.17,3.35c7.48,0,12.3-6.28,12.3-15.91c0-9.29-5.42-14.53-11.52-14.53
			c-3.01,0-6.62,1.98-8.94,3.7V515.55z"/>
	</g>
</g>
<g>
	<path class="st2" d="M804.89,551.59"/>
</g>
<g>
	<path class="st2" d="M791.85,514.21"/>
</g>
<g>
	<g>
		<path class="st1" d="M808.75,549.91l1.16,9.94c0.01,0.12-0.07,0.23-0.19,0.24c-0.12,0.01-0.23-0.07-0.24-0.19l0,0l0-0.01
			l-1.11-9.93l0-0.01c-0.01-0.11,0.07-0.2,0.17-0.22C808.65,549.73,808.74,549.8,808.75,549.91z"/>
		<path class="st1" d="M810.65,571.85l0.09,5.01c0.04,1.67,0.01,3.34-0.01,5.01c-0.06,3.34-0.19,6.68-0.41,10.02
			c-0.01,0.16-0.15,0.28-0.31,0.27s-0.28-0.15-0.27-0.31l0,0c0.23-3.32,0.39-6.65,0.46-9.99c0.03-1.67,0.06-3.33,0.03-5l-0.06-5
			l0-0.01c0-0.14,0.11-0.25,0.24-0.25S810.65,571.72,810.65,571.85z"/>
		<path class="st1" d="M809.18,603.87c-0.83,6.63-2,13.23-3.49,19.74c-0.04,0.2-0.24,0.32-0.44,0.27c-0.2-0.04-0.32-0.24-0.27-0.44
			l0,0c1.51-6.49,2.7-13.05,3.57-19.66c0.02-0.17,0.18-0.3,0.36-0.28C809.08,603.54,809.2,603.7,809.18,603.87z"/>
		<path class="st1" d="M802.66,635.26c-1.88,6.42-4.08,12.74-6.59,18.94c-0.09,0.22-0.35,0.33-0.57,0.24
			c-0.22-0.09-0.33-0.35-0.24-0.57l0,0c2.53-6.16,4.75-12.45,6.65-18.83c0.06-0.21,0.28-0.33,0.49-0.26
			C802.6,634.84,802.72,635.05,802.66,635.26z"/>
		<path class="st1" d="M791.21,665.22c-2.88,6.04-6.06,11.93-9.52,17.65c-0.15,0.24-0.46,0.32-0.7,0.17
			c-0.24-0.15-0.32-0.46-0.17-0.7l0,0c3.47-5.68,6.66-11.53,9.56-17.52c0.11-0.23,0.39-0.33,0.62-0.22
			C791.23,664.71,791.33,664.99,791.21,665.22z"/>
		<path class="st1" d="M775.15,692.98c-3.8,5.51-7.87,10.83-12.2,15.93c-0.21,0.25-0.58,0.28-0.83,0.07
			c-0.25-0.21-0.28-0.58-0.07-0.83l0,0c4.32-5.06,8.4-10.33,12.2-15.79c0.17-0.24,0.51-0.3,0.75-0.13
			C775.26,692.4,775.32,692.74,775.15,692.98z"/>
		<path class="st1" d="M754.9,717.87c-4.62,4.84-9.48,9.46-14.56,13.82c-0.28,0.24-0.69,0.21-0.93-0.07s-0.21-0.69,0.07-0.93l0,0
			c5.06-4.31,9.92-8.87,14.53-13.67c0.24-0.24,0.62-0.25,0.87-0.02C755.12,717.24,755.13,717.63,754.9,717.87z"/>
		<path class="st1" d="M730.97,739.27c-5.33,4.06-10.86,7.85-16.56,11.36c-0.35,0.21-0.8,0.1-1.01-0.24
			c-0.21-0.34-0.1-0.8,0.24-1.01l0,0c5.68-3.46,11.19-7.2,16.5-11.2c0.3-0.23,0.73-0.17,0.96,0.14
			C731.33,738.61,731.27,739.04,730.97,739.27z"/>
		<path class="st1" d="M703.95,756.63c-5.91,3.16-11.97,6.02-18.17,8.58c-0.4,0.17-0.87-0.03-1.04-0.43
			c-0.17-0.4,0.03-0.87,0.43-1.04l0,0c6.15-2.51,12.18-5.34,18.05-8.45c0.37-0.2,0.83-0.06,1.03,0.31S704.32,756.44,703.95,756.63z"
			/>
		<path class="st1" d="M674.5,769.47c-6.34,2.18-12.78,4.04-19.31,5.58c-0.46,0.11-0.91-0.18-1.02-0.63
			c-0.11-0.46,0.18-0.91,0.63-1.02l0,0c6.47-1.5,12.87-3.32,19.17-5.46c0.43-0.14,0.89,0.08,1.03,0.51S674.93,769.33,674.5,769.47z"
			/>
		<path class="st1" d="M643.38,777.46c-6.6,1.14-13.27,1.95-19.95,2.44c-0.5,0.04-0.93-0.34-0.97-0.84
			c-0.04-0.5,0.34-0.93,0.84-0.97l0,0c6.63-0.46,13.23-1.24,19.78-2.35c0.47-0.08,0.92,0.24,1,0.71
			C644.17,776.93,643.85,777.38,643.38,777.46z"/>
		<path class="st1" d="M611.38,780.41c-6.7,0.09-13.41-0.15-20.09-0.72c-0.53-0.04-0.92-0.51-0.87-1.04s0.51-0.92,1.04-0.87l0,0
			c6.62,0.58,13.26,0.84,19.9,0.78c0.51-0.01,0.93,0.4,0.93,0.91C612.29,779.99,611.89,780.41,611.38,780.41z"/>
		<path class="st1" d="M579.29,778.32c-6.64-0.96-13.23-2.26-19.74-3.88c-0.54-0.14-0.87-0.69-0.74-1.23
			c0.14-0.54,0.69-0.87,1.23-0.74l0,0c6.44,1.63,12.96,2.93,19.53,3.91c0.53,0.08,0.9,0.58,0.82,1.11S579.83,778.39,579.29,778.32z"
			/>
		<path class="st1" d="M547.93,771.17c-6.4-2.01-12.7-4.34-18.87-6.98c-0.54-0.23-0.79-0.86-0.56-1.4c0.23-0.54,0.86-0.79,1.4-0.56
			l0,0c6.09,2.63,12.32,4.96,18.65,6.97c0.54,0.17,0.85,0.75,0.67,1.3C549.06,771.04,548.48,771.34,547.93,771.17z"/>
		<path class="st1" d="M518.11,759.11c-6-3-11.85-6.31-17.52-9.89c-0.52-0.33-0.68-1.03-0.35-1.55c0.33-0.52,1.03-0.68,1.55-0.35
			l0,0c5.6,3.56,11.37,6.85,17.29,9.84c0.54,0.27,0.75,0.93,0.48,1.46C519.3,759.16,518.65,759.38,518.11,759.11z"/>
		<path class="st1" d="M490.58,742.46c-5.45-3.92-10.71-8.1-15.74-12.54c-0.49-0.43-0.54-1.18-0.11-1.66
			c0.43-0.49,1.18-0.54,1.66-0.11l0,0c4.96,4.4,10.15,8.56,15.52,12.45c0.51,0.37,0.63,1.09,0.26,1.6S491.09,742.83,490.58,742.46z"
			/>
		<path class="st1" d="M466.01,721.67c-4.77-4.73-9.3-9.69-13.58-14.86c-0.44-0.53-0.36-1.31,0.17-1.75
			c0.53-0.44,1.31-0.36,1.75,0.17l0,0c4.21,5.13,8.66,10.05,13.36,14.74c0.47,0.47,0.47,1.23,0,1.7S466.48,722.14,466.01,721.67z"/>
		<path class="st1" d="M445,697.28c-3.97-5.42-7.66-11.04-11.07-16.82c-0.37-0.62-0.16-1.43,0.46-1.8c0.62-0.37,1.43-0.16,1.8,0.46
			l0,0.01c3.34,5.73,6.97,11.29,10.86,16.66c0.41,0.57,0.29,1.36-0.28,1.77C446.21,697.96,445.42,697.84,445,697.28z"/>
		<path class="st1" d="M428.1,669.86c-3.06-5.98-5.82-12.12-8.27-18.37c-0.28-0.71,0.07-1.51,0.78-1.79
			c0.71-0.28,1.51,0.07,1.79,0.78l0,0.01c2.39,6.18,5.09,12.25,8.08,18.16c0.33,0.66,0.07,1.47-0.59,1.8S428.44,670.52,428.1,669.86
			z"/>
		<path class="st1" d="M415.77,640.1c-2.07-6.39-3.82-12.89-5.24-19.46c-0.17-0.78,0.33-1.56,1.11-1.73s1.56,0.33,1.73,1.11l0,0.01
			c1.37,6.48,3.07,12.9,5.08,19.21c0.24,0.74-0.17,1.53-0.91,1.77C416.8,641.24,416,640.84,415.77,640.1z"/>
		<path class="st1" d="M408.33,608.74c-1.02-6.64-1.69-13.34-2.04-20.05c-0.04-0.82,0.59-1.52,1.41-1.56
			c0.82-0.04,1.52,0.59,1.56,1.41l0,0c0.34,6.62,1.02,13.21,2,19.76c0.12,0.81-0.44,1.56-1.24,1.68
			C409.21,610.1,408.45,609.54,408.33,608.74z"/>
		<path class="st1" d="M406.02,576.59c0.05-6.72,0.42-13.44,1.12-20.13c0.09-0.82,0.82-1.41,1.64-1.33
			c0.82,0.09,1.41,0.82,1.33,1.64l0,0c-0.7,6.59-1.06,13.21-1.11,19.84c-0.01,0.82-0.68,1.48-1.5,1.48S406.01,577.41,406.02,576.59z
			"/>
		<path class="st1" d="M408.76,544.47c1.1-6.63,2.53-13.21,4.29-19.7c0.22-0.8,1.04-1.27,1.83-1.05c0.8,0.22,1.27,1.04,1.05,1.83
			l0,0c-1.73,6.39-3.15,12.87-4.23,19.41c-0.14,0.81-0.9,1.36-1.72,1.23C409.18,546.05,408.63,545.28,408.76,544.47z"/>
		<path class="st1" d="M416.57,513.19c2.14-6.37,4.61-12.64,7.38-18.76c0.34-0.75,1.23-1.09,1.98-0.75
			c0.75,0.34,1.09,1.23,0.75,1.98l0,0c-2.73,6.03-5.16,12.21-7.27,18.48c-0.26,0.78-1.11,1.2-1.89,0.94S416.31,513.97,416.57,513.19
			z"/>
		<path class="st1" d="M429.26,483.55c3.12-5.95,6.59-11.72,10.31-17.32c0.44-0.67,1.35-0.85,2.01-0.41
			c0.67,0.44,0.85,1.34,0.41,2.01c-3.64,5.53-6.98,11.26-10.08,17.12c-0.39,0.73-1.29,1.01-2.03,0.62
			C429.16,485.19,428.88,484.29,429.26,483.55z"/>
		<path class="st1" d="M446.57,456.37c4.05-5.36,8.36-10.53,12.92-15.46c0.51-0.55,1.36-0.58,1.91-0.08c0.55,0.5,0.58,1.36,0.08,1.9
			c-4.47,4.9-8.69,10.02-12.65,15.33c-0.47,0.63-1.35,0.76-1.98,0.29C446.22,457.89,446.09,457,446.57,456.37L446.57,456.37z"/>
		<path class="st1" d="M467.95,432.27c4.84-4.66,9.91-9.07,15.18-13.23c0.54-0.43,1.33-0.33,1.76,0.21c0.43,0.54,0.33,1.32-0.2,1.75
			c-5.18,4.14-10.16,8.53-14.91,13.16c-0.52,0.51-1.35,0.5-1.86-0.02C467.41,433.61,467.42,432.78,467.95,432.27L467.95,432.27z"/>
		<path class="st1" d="M492.84,411.85c5.51-3.83,11.21-7.39,17.07-10.66c0.55-0.31,1.25-0.11,1.56,0.44
			c0.31,0.55,0.11,1.25-0.44,1.56c-5.78,3.27-11.39,6.82-16.81,10.64c-0.55,0.39-1.3,0.26-1.69-0.29
			C492.16,412.99,492.29,412.24,492.84,411.85L492.84,411.85z"/>
		<path class="st1" d="M520.65,395.64c6.05-2.9,12.25-5.49,18.55-7.77c0.51-0.18,1.07,0.08,1.25,0.59c0.18,0.5-0.08,1.06-0.58,1.25
			c-6.22,2.32-12.32,4.96-18.28,7.89c-0.54,0.27-1.19,0.04-1.46-0.5c-0.27-0.54-0.04-1.19,0.5-1.46
			C520.64,395.65,520.64,395.65,520.65,395.64z"/>
		<path class="st1" d="M550.67,384.12c6.43-1.89,12.96-3.46,19.54-4.71c0.44-0.08,0.85,0.2,0.94,0.64c0.08,0.43-0.2,0.85-0.63,0.93
			c-6.52,1.3-12.97,2.93-19.32,4.88c-0.48,0.15-0.99-0.12-1.14-0.6C549.91,384.78,550.18,384.27,550.67,384.12
			C550.66,384.12,550.67,384.12,550.67,384.12z"/>
		<path class="st1" d="M582.12,377.54c6.64-0.85,13.33-1.34,20.02-1.51c0.33-0.01,0.6,0.25,0.61,0.58c0.01,0.32-0.25,0.59-0.57,0.61
			c-6.65,0.28-13.28,0.89-19.87,1.79c-0.4,0.06-0.77-0.23-0.83-0.63C581.43,377.96,581.71,377.59,582.12,377.54L582.12,377.54z"/>
		<path class="st1" d="M614.18,376.07c6.69,0.22,13.36,0.77,19.98,1.65c0.18,0.02,0.31,0.19,0.28,0.37
			c-0.02,0.18-0.19,0.3-0.37,0.28c-6.62-0.77-13.27-1.21-19.93-1.32c-0.27,0-0.49-0.23-0.49-0.5S613.9,376.07,614.18,376.07
			C614.18,376.07,614.18,376.07,614.18,376.07z"/>
		<path class="st1" d="M646.04,379.66l9.77,2.15c0.08,0.02,0.13,0.1,0.11,0.18c-0.02,0.08-0.1,0.13-0.18,0.11l-0.01,0l-9.79-1.99
			l-0.01,0c-0.13-0.03-0.21-0.15-0.18-0.27C645.79,379.72,645.91,379.63,646.04,379.66C646.04,379.66,646.04,379.66,646.04,379.66z"
			/>
		<g>
			<polygon class="st1" points="804.89,530.59 798.69,559.92 808.68,551.42 821.01,555.87 			"/>
		</g>
	</g>
</g>
<g>
	<path d="M533.5,283.5"/>
	<g>
		<path class="st0" d="M533.5,283.5"/>
	</g>
</g>
<polygon class="st2" points="1367.84,1171.35 1370.47,1171.35 1370.47,1171.35 1367.84,1171.35 "/>
</svg>
